<svg width="21" height="28" viewBox="0 0 21 28" fill="none" xmlns="http://www.w3.org/2000/svg">
<path d="M5.00993 22H15.0099V24H5.00993V22ZM7.00993 26H13.0099V28H7.00993V26ZM10.0099 0C7.35777 0 4.81423 1.05357 2.93887 2.92893C1.0635 4.8043 0.00993384 7.34784 0.00993384 10C-0.0576919 11.4533 0.220708 12.902 0.822229 14.2267C1.42375 15.5514 2.3312 16.7144 3.46993 17.62C4.46993 18.55 5.00993 19.08 5.00993 20H7.00993C7.00993 18.16 5.89993 17.13 4.81993 16.14C3.88529 15.4243 3.1404 14.4903 2.65051 13.4198C2.16062 12.3494 1.94067 11.1752 2.00993 10C2.00993 7.87827 2.85279 5.84344 4.35308 4.34315C5.85337 2.84285 7.8882 2 10.0099 2C12.1317 2 14.1665 2.84285 15.6668 4.34315C17.1671 5.84344 18.0099 7.87827 18.0099 10C18.078 11.176 17.8566 12.3508 17.3649 13.4213C16.8732 14.4918 16.1264 15.4253 15.1899 16.14C14.1199 17.14 13.0099 18.14 13.0099 20H15.0099C15.0099 19.08 15.5399 18.55 16.5499 17.61C17.6879 16.706 18.5949 15.5447 19.1964 14.2217C19.798 12.8987 20.0768 11.4518 20.0099 10C20.0099 8.68678 19.7513 7.38642 19.2487 6.17317C18.7462 4.95991 18.0096 3.85752 17.081 2.92893C16.1524 2.00035 15.05 1.26375 13.8368 0.761205C12.6235 0.258658 11.3232 0 10.0099 0V0Z" fill="#7D1E6A"/>
</svg>
